<?xml version="1.0" encoding="utf-8"?>
<!-- Generator: Adobe Illustrator 16.0.0, SVG Export Plug-In . SVG Version: 6.00 Build 0)  -->
<!DOCTYPE svg PUBLIC "-//W3C//DTD SVG 1.1//EN" "http://www.w3.org/Graphics/SVG/1.1/DTD/svg11.dtd">
<svg version="1.1" id="Layer_1" xmlns="http://www.w3.org/2000/svg" xmlns:xlink="http://www.w3.org/1999/xlink" x="0px" y="0px"
	 width="221px" height="161px" viewBox="0 0 221 161" enable-background="new 0 0 221 161" xml:space="preserve">
<circle fill="#FFFFFF" stroke="#231F20" stroke-width="4.9015" stroke-miterlimit="10" cx="110.5" cy="80.5" r="61.793"/>
<circle fill="#231F20" cx="110.5" cy="80.5" r="4.477"/>
<text transform="matrix(1 0 0 1 18.5 38.3867)" font-family="'ArialMT'" font-size="39">Q</text>
<g>
	<g>
		<line fill="none" stroke="#231F20" stroke-width="2" stroke-miterlimit="10" x1="110.5" y1="80.5" x2="142.767" y2="115.514"/>
		<g>
			<polygon fill="#231F20" points="137.2,116.332 152.373,125.938 144.037,110.032 			"/>
		</g>
	</g>
</g>
<text transform="matrix(1 0 0 1 128 97.7881)" font-family="'ArialMT'" font-size="25">R</text>
<text transform="matrix(1 0 0 1 92.5234 34.8867)" font-family="'ArialMT'" font-size="18">+</text>
<text transform="matrix(1 0 0 1 73.0234 44.8291)" font-family="'ArialMT'" font-size="18">+</text>
<text transform="matrix(1 0 0 1 60.5234 57.0938)" font-family="'ArialMT'" font-size="18">+</text>
<text transform="matrix(1 0 0 1 51.0234 80.5)" font-family="'ArialMT'" font-size="18">+</text>
<text transform="matrix(1 0 0 1 55.0234 103.2188)" font-family="'ArialMT'" font-size="18">+</text>
<text transform="matrix(1 0 0 1 64.5234 120.7188)" font-family="'ArialMT'" font-size="18">+</text>
<text transform="matrix(1 0 0 1 79.0234 133.7188)" font-family="'ArialMT'" font-size="18">+</text>
<text transform="matrix(1 0 0 1 96.0234 138.7188)" font-family="'ArialMT'" font-size="18">+</text>
<text transform="matrix(1 0 0 1 114.9775 138.7188)" font-family="'ArialMT'" font-size="18">+</text>
<text transform="matrix(1 0 0 1 131.4365 133.7188)" font-family="'ArialMT'" font-size="18">+</text>
<text transform="matrix(1 0 0 1 152.373 115.7188)" font-family="'ArialMT'" font-size="18">+</text>
<text transform="matrix(1 0 0 1 157.873 97.7881)" font-family="'ArialMT'" font-size="18">+</text>
<text transform="matrix(1 0 0 1 157.873 80.5)" font-family="'ArialMT'" font-size="18">+</text>
<text transform="matrix(1 0 0 1 152.373 59.8398)" font-family="'ArialMT'" font-size="18">+</text>
<text transform="matrix(1 0 0 1 141.373 49.3066)" font-family="'ArialMT'" font-size="18">+</text>
<text transform="matrix(1 0 0 1 128 38.3867)" font-family="'ArialMT'" font-size="18">+</text>
<text transform="matrix(1 0 0 1 110.5 34.8867)" font-family="'ArialMT'" font-size="18">+</text>
</svg>
